<svg xmlns="http://www.w3.org/2000/svg" viewBox="0 0 509.67 84.97"><defs><style>.cls-1{fill:#403c99;}.cls-2{fill:#37479e;}.cls-3{fill:#36439c;}.cls-4{fill:#455da9;}.cls-5,.cls-6{fill:#4f68ae;}.cls-5{stroke:#000;stroke-miterlimit:10;stroke-width:0.8px;}.cls-7{fill:#303495;}</style></defs><g id="Layer_2" data-name="Layer 2"><g id="Layer_1-2" data-name="Layer 1"><path class="cls-1" d="M31.66,83.36c.12-3.86.22-8,.28-12.2s.14-9.39.2-15v-.41H16.48v.4q0,5.93.05,12.71,0,6.62.15,14.51H.82L1,74.73c.07-3.08.13-6.39.2-10s.1-7.49.1-11.65V27.27q0-5-.05-9.1t-.05-8V2H17.36c-.25,5.36-.45,10.41-.58,15s-.23,9.53-.3,14.32v.4H32.14V23c0-2.52,0-4.93,0-7.24S32,11.13,32,8.89V2H48.2C48,6.07,47.86,10,47.77,13.55s-.19,7.45-.26,11.1S47.4,32,47.36,35.7s0,7.68,0,11.9q0,7.44,0,16.18.06,8.58.15,19.58Z" transform="translate(-0.41 -0.4)"/><path d="M47.78,2.41c-.18,3.91-.32,7.65-.41,11.13-.11,3.86-.19,7.6-.26,11.1S47,32,47,35.69s-.05,7.53-.05,11.91c0,5.13,0,10.57.05,16.18s.08,12,.15,19.18h-15c.12-3.74.21-7.71.27-11.79q.1-6.58.2-15v-.81H16.08v.8c0,4,0,8.3.05,12.71s.08,9,.14,14.11h-15l.18-8.22c.07-3.08.13-6.4.2-9.95s.1-7.5.1-11.66V27.27c0-3.28,0-6.34-.05-9.1s0-5.34,0-8V2.41H16.94c-.24,5.21-.43,10.11-.56,14.59-.13,4.71-.23,9.53-.3,14.32v.81H32.54V23c0-2.48,0-4.92,0-7.25s-.05-4.51-.05-6.81V2.41H47.78m.84-.8h-17V8.89q0,3.36.05,6.83c0,2.31,0,4.72,0,7.23v8.38H16.88Q17,24.1,17.18,17c.13-4.72.34-9.86.6-15.41H.81v8.58q0,3.87,0,8t.05,9.09V53.13q0,6.33-.1,11.65c-.07,3.55-.13,6.86-.2,9.94s-.14,6.09-.2,9H17.08c-.07-5.42-.12-10.4-.15-14.91s-.05-8.76-.05-12.71H31.74q-.09,8.45-.2,15t-.3,12.61H47.91q-.09-11.25-.15-20t0-16.17q0-6.32,0-11.9c0-3.71.09-7.4.15-11.05s.15-7.34.25-11.09.26-7.74.46-12Z" transform="translate(-0.41 -0.4)"/><path class="cls-2" d="M125.94,84.16a11,11,0,0,1-5.72-1.34,9.72,9.72,0,0,1-3.47-3.62A16.13,16.13,0,0,1,115,74a35.84,35.84,0,0,1-.5-6c0-.8,0-2,.05-3.56l.1-5c0-1.73.08-3.42.15-5.06s.1-3,.1-4V50h-6V24.1h6V12.45h13V24.1h7.73V50h-7.93V64.48c0,2.84.24,4.69.75,5.65s1.74,1.58,3.57,1.58c.48,0,1.13,0,1.94-.11a9.19,9.19,0,0,0,1.46-.2,18,18,0,0,1,.11,2.37V81.6c0,.8,0,1.4-.06,1.81-.72.12-1.51.22-2.34.3s-1.9.19-2.8.25-1.73.12-2.5.15S126.4,84.16,125.94,84.16Z" transform="translate(-0.41 -0.4)"/><path d="M127.45,12.85V24.5h7.73V49.62h-7.93V64.48c0,2.9.26,4.81.79,5.84.62,1.18,1.94,1.79,3.93,1.79.49,0,1.16,0,2-.11q.62,0,1.08-.12c0,.41.06,1,.06,1.89V81.6c0,.67,0,1.14,0,1.46-.63.1-1.31.18-2,.26-.94.09-1.88.18-2.79.24s-1.74.12-2.49.15-1.37.05-1.82.05a10.5,10.5,0,0,1-5.51-1.29A9.24,9.24,0,0,1,117.1,79a16,16,0,0,1-1.72-5.07,35,35,0,0,1-.49-5.94c0-.83,0-2.06,0-3.55s.06-3.23.1-5,.08-3.43.15-5.06.1-3,.1-4v-.8h-6V24.5h6V12.85h12.16m.8-.8H114.49V23.7h-6V50.42h6c0,1,0,2.32-.1,4s-.12,3.33-.15,5.07-.07,3.4-.1,5,0,2.76,0,3.56a35.81,35.81,0,0,0,.5,6.08,16.55,16.55,0,0,0,1.81,5.32A10,10,0,0,0,120,83.16a11.34,11.34,0,0,0,5.93,1.4c.47,0,1.09,0,1.86,0s1.61-.08,2.51-.15,1.84-.15,2.81-.25,1.86-.22,2.66-.35a14.92,14.92,0,0,0,.1-2.16V73.77a12.54,12.54,0,0,0-.2-2.87,7.52,7.52,0,0,1-1.81.3c-.8.07-1.44.11-1.9.11-1.68,0-2.75-.46-3.22-1.36s-.7-2.73-.7-5.47V50.42H136V23.7h-7.73V12.05Z" transform="translate(-0.41 -0.4)"/><path class="cls-3" d="M243.63,83.36V52.93c0-2.57-.56-4.47-1.67-5.65a5.18,5.18,0,0,0-3.85-1.78,5.65,5.65,0,0,0-4,1.77,6.48,6.48,0,0,0-1.83,4.85V83.36h-14V54.13c0-2.7-.63-4.72-1.87-6a5.63,5.63,0,0,0-4-1.93,5.07,5.07,0,0,0-3.87,1.89A7.2,7.2,0,0,0,206.87,53V83.36H193.11V77q0-3.7,0-7.53t.05-7.28V49.66q0-4-.05-8.49t0-9.08v-8h13.76v6.32l.74-1.18a12.38,12.38,0,0,1,5.21-4.68,16.15,16.15,0,0,1,7-1.56,13.8,13.8,0,0,1,6.44,1.51,9.92,9.92,0,0,1,4.44,4.78L231,30l.38-.68a11.14,11.14,0,0,1,5.29-4.7A18.78,18.78,0,0,1,244.53,23c4.21,0,7.47,1.35,9.69,4s3.37,7.32,3.37,13.75V83.36Z" transform="translate(-0.41 -0.4)"/><path d="M244.53,23.4c4.14,0,7.21,1.26,9.38,3.88s3.28,7.16,3.28,13.49V83H244v-30c0-2.68-.6-4.67-1.78-5.92a5.54,5.54,0,0,0-4.14-1.91A6.06,6.06,0,0,0,233.83,47a6.86,6.86,0,0,0-2,5.14V83H218.72V54.13c0-2.81-.67-4.93-2-6.28a6,6,0,0,0-4.34-2.05,5.43,5.43,0,0,0-4.17,2,7.59,7.59,0,0,0-1.76,5.2V83h-13V77c0-2.53,0-5.06.05-7.52s.05-5,.05-7.29V49.66c0-2.57,0-5.43-.05-8.49s-.05-6-.05-9.08V24.5h13v7.31L208,29.45a12,12,0,0,1,5-4.53,15.83,15.83,0,0,1,6.84-1.52,13.55,13.55,0,0,1,6.26,1.46,9.58,9.58,0,0,1,4.26,4.6l.66,1.41.76-1.35A10.78,10.78,0,0,1,236.88,25a18.47,18.47,0,0,1,7.65-1.58m0-.8a19.22,19.22,0,0,0-8,1.65,11.46,11.46,0,0,0-5.47,4.87,10.43,10.43,0,0,0-4.62-5,14.33,14.33,0,0,0-6.63-1.55,16.43,16.43,0,0,0-7.18,1.6A12.65,12.65,0,0,0,207.27,29V23.7H192.71v8.39q0,4.56,0,9.09t.05,8.48V62.22c0,2.31,0,4.73-.05,7.28s0,5,0,7.53v6.73h14.56V53a6.78,6.78,0,0,1,1.56-4.67,4.68,4.68,0,0,1,3.57-1.76,5.2,5.2,0,0,1,3.76,1.81q1.76,1.8,1.76,5.72V83.76h14.76V52.12a6.08,6.08,0,0,1,1.71-4.57,5.27,5.27,0,0,1,3.72-1.65,4.77,4.77,0,0,1,3.56,1.65q1.56,1.66,1.56,5.38V83.76H258v-43q0-9.84-3.46-14t-10-4.16Z" transform="translate(-0.41 -0.4)"/><path class="cls-4" d="M272.55,21.19a11.32,11.32,0,0,1-4.47-.82,10.23,10.23,0,0,1-3.24-2.12,8.13,8.13,0,0,1-1.91-3,10.47,10.47,0,0,1-.63-3.58A10.64,10.64,0,0,1,263,7.87a12.56,12.56,0,0,1,2-3.55,9.74,9.74,0,0,1,3.24-2.56,10.2,10.2,0,0,1,8.53-.05A9.78,9.78,0,0,1,280,4.08a10.76,10.76,0,0,1,1.93,3.24,9.71,9.71,0,0,1,.68,3.42,10.12,10.12,0,0,1-.82,4.11,10.51,10.51,0,0,1-2.23,3.29,10.68,10.68,0,0,1-3.19,2.23A8.92,8.92,0,0,1,272.55,21.19Z" transform="translate(-0.41 -0.4)"/><path d="M272.65,1.2a9.07,9.07,0,0,1,4,.87,9.42,9.42,0,0,1,3,2.27,10.42,10.42,0,0,1,1.86,3.12,9.41,9.41,0,0,1,.65,3.28,9.68,9.68,0,0,1-.79,3.95,10.13,10.13,0,0,1-2.14,3.17A10.62,10.62,0,0,1,276.18,20a8.61,8.61,0,0,1-3.63.78,10.87,10.87,0,0,1-4.31-.79,9.61,9.61,0,0,1-3.11-2,7.68,7.68,0,0,1-1.82-2.87,9.9,9.9,0,0,1-.61-3.44A10.56,10.56,0,0,1,263.4,8a12.28,12.28,0,0,1,2-3.44,9.43,9.43,0,0,1,3.11-2.45,9.22,9.22,0,0,1,4.16-.92m0-.8a10.08,10.08,0,0,0-4.52,1,10.18,10.18,0,0,0-3.37,2.67,13.08,13.08,0,0,0-2.11,3.66,11.19,11.19,0,0,0-.75,3.92,10.94,10.94,0,0,0,.65,3.71,8.66,8.66,0,0,0,2,3.17,10.66,10.66,0,0,0,3.37,2.21,11.65,11.65,0,0,0,4.62.85,9.36,9.36,0,0,0,4-.85,11.39,11.39,0,0,0,3.32-2.31A11,11,0,0,0,282.14,15a10.5,10.5,0,0,0,.85-4.27,10,10,0,0,0-.7-3.56,11,11,0,0,0-2-3.36A10.15,10.15,0,0,0,277,1.35,10,10,0,0,0,272.65.4Z" transform="translate(-0.41 -0.4)"/><path class="cls-1" d="M342.28,83.36,328.91,52.71l-.28,0c-2.73.2-5.6.3-8.51.3h-.4v.4c0,5.13,0,10.24.1,15.17s.26,9.77.58,14.76H303.87c.19-6.16.32-12.42.38-18.63.07-6.45.1-12.52.1-18,0-8-.05-15.79-.15-23.11q-.15-10.75-.34-21.62c3.12-.32,6.32-.59,9.51-.82S320.06.8,323.44.8a84.55,84.55,0,0,1,13.69,1.05,30.73,30.73,0,0,1,11,3.86,20.47,20.47,0,0,1,7.34,7.74c1.8,3.27,2.71,7.56,2.71,12.76,0,6.45-1.34,11.57-4,15.23a24.29,24.29,0,0,1-10.83,8.3l-.39.16,16.28,33.46ZM327.66,17.88c-1.08,0-2.29.05-3.6.15s-2.66.25-4,.45l-.34.06v20l.36,0c2.08.2,4,.3,5.77.3,4.63,0,8-.89,10-2.66s3-4.46,3-8a12.86,12.86,0,0,0-.89-5.18,7.92,7.92,0,0,0-2.43-3.17,8.78,8.78,0,0,0-3.57-1.58A21.58,21.58,0,0,0,327.66,17.88Z" transform="translate(-0.41 -0.4)"/><path d="M323.44,1.2a85.05,85.05,0,0,1,13.63,1,30.42,30.42,0,0,1,10.86,3.82,20,20,0,0,1,7.2,7.58c1.76,3.21,2.66,7.44,2.66,12.57,0,6.36-1.32,11.41-3.92,15a23.89,23.89,0,0,1-10.65,8.16l-.79.33.37.76L358.62,83H342.54L329.39,52.81l-.22-.52-.57,0c-2.72.2-5.58.3-8.48.3h-.8v.8c0,5.14,0,10.24.1,15.17.07,4.68.25,9.5.55,14.36H304.28c.18-6,.31-12.15.37-18.22.07-6.46.1-12.53.1-18,0-8-.05-15.79-.15-23.11-.09-6.81-.2-14-.33-21.26,3-.3,6.07-.56,9.13-.78,3.29-.23,6.67-.35,10-.35m2.41,38.06c4.8,0,8.14-.9,10.22-2.76s3.13-4.64,3.13-8.28a13.39,13.39,0,0,0-.92-5.35,8.35,8.35,0,0,0-2.56-3.32A9.23,9.23,0,0,0,332,17.89a22.15,22.15,0,0,0-4.32-.41c-1.09,0-2.31.05-3.63.15s-2.68.26-4,.46l-.68.1v20.7l.73.07c2.09.2,4,.3,5.8.3M323.44.4c-3.42,0-6.78.12-10.1.35s-6.61.52-9.89.86q.19,11,.35,22T304,46.7q0,8.53-.1,18t-.4,19h17.38q-.51-7.73-.61-15.17t-.1-15.16c2.95,0,5.79-.1,8.54-.3L342,83.76H359.9L343.52,50.11a24.61,24.61,0,0,0,11-8.43q4.07-5.62,4.07-15.47,0-7.93-2.76-12.95a20.68,20.68,0,0,0-7.49-7.89A31,31,0,0,0,337.2,1.45a85.43,85.43,0,0,0-13.76-1Zm2.41,38.06q-2.61,0-5.73-.3V18.88c1.34-.2,2.67-.35,4-.45s2.49-.15,3.57-.15a20.47,20.47,0,0,1,4.16.4,8.31,8.31,0,0,1,3.42,1.51,7.54,7.54,0,0,1,2.31,3,12.43,12.43,0,0,1,.85,5c0,3.41-.95,6-2.86,7.68s-5.14,2.56-9.69,2.56Z" transform="translate(-0.41 -0.4)"/><path class="cls-1" d="M480.35,84.46a16,16,0,0,1-8.13-2.15,20.26,20.26,0,0,1-6.45-6.06,32.17,32.17,0,0,1-4.32-9.37,43,43,0,0,1-1.59-11.94,45.78,45.78,0,0,1,1.69-12.65,36,36,0,0,1,4.62-10.18,22.25,22.25,0,0,1,6.91-6.71,16.28,16.28,0,0,1,8.58-2.4,17.65,17.65,0,0,1,7.66,1.72A22.17,22.17,0,0,1,495.54,29l.68.68V24.1h13.46l-.5,59.26h-13V78l-.65.53a28.34,28.34,0,0,1-7.53,4.4A21.22,21.22,0,0,1,480.35,84.46Zm6.73-47.1a8.12,8.12,0,0,0-6.32,2.85,10.59,10.59,0,0,0-2.52,7.29,10,10,0,0,0,2.37,6.9A7.85,7.85,0,0,0,486.68,57a9.15,9.15,0,0,0,6.76-2.83A9.88,9.88,0,0,0,496.22,47a10.53,10.53,0,0,0-.68-3.76,9.07,9.07,0,0,0-4.88-5.14A8.9,8.9,0,0,0,487.08,37.36Z" transform="translate(-0.41 -0.4)"/><path d="M481.66,23.4a17.33,17.33,0,0,1,7.49,1.68,21.54,21.54,0,0,1,6.1,4.21l1.37,1.36V24.5h12.65L508.78,83H496.62V77.17l-1.3,1a27.73,27.73,0,0,1-7.42,4.35,20.91,20.91,0,0,1-7.55,1.5,15.58,15.58,0,0,1-7.93-2.1A19.81,19.81,0,0,1,466.09,76a31.54,31.54,0,0,1-4.25-9.26,42.13,42.13,0,0,1-1.58-11.82,45.41,45.41,0,0,1,1.68-12.54,35.32,35.32,0,0,1,4.56-10.07,22.22,22.22,0,0,1,6.78-6.59,16,16,0,0,1,8.38-2.34m5,34a9.55,9.55,0,0,0,7.05-2.95A10.29,10.29,0,0,0,496.62,47a10.88,10.88,0,0,0-.71-3.9,9.43,9.43,0,0,0-5.09-5.37,9.34,9.34,0,0,0-3.74-.77,8.5,8.5,0,0,0-6.62,3,11,11,0,0,0-2.62,7.56,10.34,10.34,0,0,0,2.47,7.17,8.23,8.23,0,0,0,6.37,2.77m-5-34.84a16.67,16.67,0,0,0-8.79,2.46,22.59,22.59,0,0,0-7,6.83,35.8,35.8,0,0,0-4.67,10.29,45.82,45.82,0,0,0-1.71,12.76,43,43,0,0,0,1.61,12,32.34,32.34,0,0,0,4.37,9.49A20.49,20.49,0,0,0,472,82.65a16.25,16.25,0,0,0,8.33,2.21,21.56,21.56,0,0,0,7.84-1.55,28.87,28.87,0,0,0,7.63-4.47v4.92h13.76l.5-60.06H495.82v5a22.53,22.53,0,0,0-6.33-4.37,18.13,18.13,0,0,0-7.83-1.75Zm5,34a7.41,7.41,0,0,1-5.78-2.51,9.55,9.55,0,0,1-2.26-6.63,10.2,10.2,0,0,1,2.42-7,7.73,7.73,0,0,1,6-2.71,8.61,8.61,0,0,1,3.42.7,8.67,8.67,0,0,1,4.67,4.93,10.09,10.09,0,0,1,.65,3.61,9.5,9.5,0,0,1-2.66,6.93,8.75,8.75,0,0,1-6.48,2.71Z" transform="translate(-0.41 -0.4)"/><path class="cls-5" d="M436.44,80.49a14.4,14.4,0,0,1-2.46-.37,33.07,33.07,0,0,1-3.53,3,11.37,11.37,0,0,1-3.82,1.6c-3.54.68-4.91-.62-4.91-4.31-1.21-.85-2.68-1.48-3.49-2.6s-.79-2.58-1.23-4.24c-.92-.66-2.24-1.51-3.45-2.5A15.71,15.71,0,0,1,410.39,68a5,5,0,0,1,.15-5.93,4.75,4.75,0,0,1,5.24-2.17,6.67,6.67,0,0,1,3.49,1.62c1.91,2.24,4.46,3,7,3.79,1.67.54,3.32,1.14,5.12,1.76.42-.38.87-.77,1.29-1.18A5.28,5.28,0,0,1,439,64.68a6.85,6.85,0,0,0,5.29.19c.23-.89.47-1.87.81-3.18-4.63,1.68-5.39-1.83-6.68-4.64a20.3,20.3,0,0,1-2.6.8c-1.28.21-2.77.74-3.85.31a10.4,10.4,0,0,0-5.87-.2c-3.68.61-5.39-.61-7.12-4.81-4.49-1.64-4.88-2.39-3.92-7.55a9.75,9.75,0,0,1-2.36-9.79C410.32,31,411.35,27,415.6,25.3a30.13,30.13,0,0,1,5.91-1.12,7.71,7.71,0,0,0,2-.3c4.56-2.34,8.79-1.73,12.79,1.3a11.26,11.26,0,0,0,1,.6,7.71,7.71,0,0,1,7-.07,4.91,4.91,0,0,1,3.21,4.94,6.83,6.83,0,0,0,.74,3.19,8.93,8.93,0,0,1,.83,5.88,4.41,4.41,0,0,1-1.89,2.63A5.58,5.58,0,0,1,438.88,38a20.28,20.28,0,0,1,.09-2.06,16.41,16.41,0,0,1-4.28-.64,15,15,0,0,1-3.24-2.53c-3.36,1.47-5.87,4.11-9.74,3.52-.12,1.81-.22,3.44-.31,4.84,2.21,1,4.19,2.05,6.27,2.76.78.27,1.82-.24,2.75-.36,2-.25,4-.92,5.89-.56,1.64.33,3.05,1.82,5.05,3.12,4.45-.91,7.56,1.63,9.41,5.81a4.68,4.68,0,0,0,.72.33c5.16,1,6.89,4.29,5,9.24a15.61,15.61,0,0,0-.77,4.05c-.33,3.5-1.13,7-4,9.12a70,70,0,0,1-9.36,5.4c-1.62.84-3.92.42-5.92.46" transform="translate(-0.41 -0.4)"/><path class="cls-6" d="M425,85a3.28,3.28,0,0,1-2.16-.65c-.8-.67-1.19-1.83-1.23-3.67v-.21l-.17-.11c-.3-.21-.62-.4-.93-.59a7.82,7.82,0,0,1-2.37-1.89,6.72,6.72,0,0,1-.91-2.73c-.09-.46-.17-.91-.29-1.36l0-.15-.84-.58c-.81-.55-1.72-1.18-2.59-1.9l-.32-.26A13.84,13.84,0,0,1,410.31,68a5.08,5.08,0,0,1,.14-6,5,5,0,0,1,4.14-2.36,5.11,5.11,0,0,1,1.21.14,6.68,6.68,0,0,1,3.54,1.65c1.8,2.12,4.14,2.86,6.62,3.65l.39.12c1.14.36,2.27.76,3.44,1.18l1.62.56.35-.32c.31-.27.61-.54.89-.82A5.49,5.49,0,0,1,436.57,64a6.18,6.18,0,0,1,2.48.56,6.72,6.72,0,0,0,2.78.63,7.54,7.54,0,0,0,2.17-.35l.21-.07.75-2.91-.65.16a5.57,5.57,0,0,1-1.34.18c-2.44,0-3.36-2.17-4.18-4.08l-.42-1-.8.28a11.84,11.84,0,0,1-1.72.5c-.29,0-.59.11-.89.17a9.5,9.5,0,0,1-2,.3,2.8,2.8,0,0,1-1-.16,7.36,7.36,0,0,0-2.82-.52,18.73,18.73,0,0,0-3,.32,10.2,10.2,0,0,1-1.65.15c-2.53,0-4-1.31-5.5-4.82l-.07-.16-.16-.06c-4.29-1.6-4.72-2.42-3.83-7.35l0-.19-.13-.14A9.9,9.9,0,0,1,412.56,36l.05-.14-.07-.14c-1.25-2.58-1.52-5-.79-6.88a6.39,6.39,0,0,1,3.82-3.59,16.81,16.81,0,0,1,4.12-.88c.65-.08,1.23-.15,1.8-.25a4.9,4.9,0,0,1,.77-.07,2.94,2.94,0,0,0,1.23-.22,11.33,11.33,0,0,1,12.9,1.31,4.45,4.45,0,0,0,.58.36l.38.21.18-.1a7.64,7.64,0,0,1,3.3-.78,8.81,8.81,0,0,1,3.58.82,5,5,0,0,1,3.27,5,6.81,6.81,0,0,0,.73,3.15,9,9,0,0,1,.84,5.94,4.55,4.55,0,0,1-1.94,2.7,5.19,5.19,0,0,1-2.8.81,5.78,5.78,0,0,1-2.61-.64A5.54,5.54,0,0,1,438.78,38a13.2,13.2,0,0,1,0-1.41l.05-.57-.39,0-.9-.07a9.74,9.74,0,0,1-2.93-.52,8.83,8.83,0,0,1-2.34-1.72c-.23-.21-.45-.43-.69-.62l-.19-.17-.23.11c-.87.4-1.69.87-2.48,1.33-1.82,1.06-3.68,2.14-5.93,2.14a5.62,5.62,0,0,1-.58,0l-.41,0-.29,4.64.25.12,1.44.67.12.06a44.19,44.19,0,0,0,4.38,1.89,1.41,1.41,0,0,0,.47.07,5.41,5.41,0,0,0,1.24-.22,7.36,7.36,0,0,1,1-.22c.57-.07,1.14-.18,1.71-.28a16.85,16.85,0,0,1,3-.38,5.6,5.6,0,0,1,1.19.11,8.7,8.7,0,0,1,3.3,1.85c.51.39,1,.78,1.62,1.16l.13.09.16,0a9.3,9.3,0,0,1,1.55-.14c3.28,0,6,2,7.7,5.88l.06.13.3.15a2,2,0,0,0,.36.16c2.56.5,4.3,1.55,5.18,3.13s.86,3.71-.11,6.25a15.17,15.17,0,0,0-.76,4c-.31,3.29-1,7-4,9.19a60.2,60.2,0,0,1-8.17,4.79l-1.2.62a6.45,6.45,0,0,1-2.93.54c-.46,0-.92,0-1.39,0H438c-.42,0-.85,0-1.26,0h-.29a8.49,8.49,0,0,1-1.77-.24l-.66-.13-.14.13c-.33.28-.64.57-.94.85a17.51,17.51,0,0,1-2.42,2,11.57,11.57,0,0,1-3.86,1.62A9.42,9.42,0,0,1,425,85Z" transform="translate(-0.41 -0.4)"/><path d="M429,22.76a11.8,11.8,0,0,1,7.15,2.66,4.62,4.62,0,0,0,.66.4l.06,0,.1.05.36.21.38-.19a7.11,7.11,0,0,1,3.12-.74,8.37,8.37,0,0,1,3.42.79,4.61,4.61,0,0,1,3,4.67,7.07,7.07,0,0,0,.78,3.34,8.65,8.65,0,0,1,.79,5.69,4.15,4.15,0,0,1-1.75,2.42,4.83,4.83,0,0,1-2.59.75,5.29,5.29,0,0,1-2.43-.6,5.16,5.16,0,0,1-2.9-4.27,12.61,12.61,0,0,1,0-1.37l0-.18.05-.78-.77-.07-.91-.07a9,9,0,0,1-2.8-.49,8.48,8.48,0,0,1-2.23-1.65c-.23-.21-.46-.43-.69-.63l-.39-.33-.47.21c-.88.41-1.71.89-2.53,1.37-1.83,1.06-3.57,2.07-5.71,2.07a5.15,5.15,0,0,1-.55,0l-.81-.06-.05.81-.26,4,0,.55.5.23,1.44.68.12,0a43,43,0,0,0,4.42,1.91,1.93,1.93,0,0,0,.6.09,5.57,5.57,0,0,0,1.35-.24,6.76,6.76,0,0,1,.93-.2c.58-.07,1.17-.18,1.76-.29a16.54,16.54,0,0,1,2.93-.37,5.52,5.52,0,0,1,1.11.1A8.38,8.38,0,0,1,439.39,45c.52.39,1,.78,1.64,1.18l.26.17.32,0a7.63,7.63,0,0,1,1.48-.14c3.12,0,5.65,1.95,7.33,5.65l.12.26.27.13.15.08.07,0h0a1.33,1.33,0,0,0,.41.16c2.44.48,4.08,1.47,4.9,2.94s.79,3.49-.13,5.9a15.75,15.75,0,0,0-.79,4.13c-.3,3.21-1,6.77-3.88,8.91a59.72,59.72,0,0,1-8.11,4.75l-1.21.62a6.05,6.05,0,0,1-2.74.5c-.45,0-.91,0-1.38,0H438c-.43,0-.86,0-1.28,0h-.28a8.6,8.6,0,0,1-1.7-.23h-.05l-.42-.09-.39-.07-.29.26-1,.86a17.15,17.15,0,0,1-2.35,1.93,10.91,10.91,0,0,1-3.72,1.56,8,8,0,0,1-1.57.17,2.85,2.85,0,0,1-1.9-.56c-.71-.59-1.06-1.66-1.09-3.37v-.41l-.35-.24-.95-.59a7.78,7.78,0,0,1-2.25-1.78,6.52,6.52,0,0,1-.84-2.6c-.09-.44-.17-.89-.29-1.36l-.07-.29L417,73.2l-.72-.5c-.8-.55-1.71-1.17-2.57-1.88l-.31-.26a13.33,13.33,0,0,1-2.79-2.77,4.66,4.66,0,0,1,.14-5.59A4.58,4.58,0,0,1,414.59,60a4.88,4.88,0,0,1,1.12.13A6.36,6.36,0,0,1,419,61.67c1.87,2.2,4.37,3,6.8,3.77l.38.12c1.14.36,2.26.76,3.44,1.17l1.39.49.45.15.35-.31.19-.17c.3-.27.6-.54.89-.83a5.13,5.13,0,0,1,3.64-1.64,5.74,5.74,0,0,1,2.32.53,7.13,7.13,0,0,0,2.94.66,7.7,7.7,0,0,0,2.29-.37l.43-.13.11-.44.52-2,.33-1.31-1.3.33a4.78,4.78,0,0,1-1.24.17c-2,0-2.85-1.59-3.81-3.84l-.27-.63-.3-.68-.69.24-.46.16a10.24,10.24,0,0,1-1.66.48l-.95.19a9.3,9.3,0,0,1-1.89.28,2.2,2.2,0,0,1-.85-.14,8,8,0,0,0-3-.54,19.48,19.48,0,0,0-3.06.32,9.4,9.4,0,0,1-1.58.15c-2.36,0-3.71-1.2-5.13-4.57l-.14-.32-.32-.12c-4.1-1.53-4.43-2.17-3.57-6.91l.07-.38-.26-.29A9.49,9.49,0,0,1,413,36.07l.08-.29-.13-.27c-1.2-2.48-1.47-4.75-.78-6.57a6,6,0,0,1,3.59-3.36,17.29,17.29,0,0,1,4-.85h.06c.58-.07,1.18-.15,1.76-.25a5,5,0,0,1,.73-.06,3.39,3.39,0,0,0,1.38-.26A11.7,11.7,0,0,1,429,22.76m0-.8a12.45,12.45,0,0,0-5.69,1.47,2.78,2.78,0,0,1-1.07.18,7.56,7.56,0,0,0-.82.07c-.58.11-1.18.18-1.78.26a17.36,17.36,0,0,0-4.22.9,6.77,6.77,0,0,0-4,3.82c-.78,2-.5,4.51.8,7.2a10.22,10.22,0,0,0,2.35,9.89c-.93,5.11-.39,6.13,4.08,7.8,1.53,3.61,3.13,5.06,5.87,5.06a10.68,10.68,0,0,0,1.71-.16,17.73,17.73,0,0,1,2.93-.31,7.16,7.16,0,0,1,2.68.49,3.14,3.14,0,0,0,1.14.19,10,10,0,0,0,2.06-.3l.91-.18a10.17,10.17,0,0,0,1.8-.52l.45-.15c.09.21.18.41.26.62.84,2,1.85,4.33,4.55,4.33a5.93,5.93,0,0,0,1.43-.19l-.52,2.05a7,7,0,0,1-2.05.33,6.42,6.42,0,0,1-2.62-.59,6.47,6.47,0,0,0-2.64-.6,5.93,5.93,0,0,0-4.2,1.87c-.28.28-.58.55-.88.81l-.18.16L429.93,66c-1.18-.42-2.32-.82-3.46-1.18l-.39-.13c-2.42-.77-4.71-1.49-6.43-3.52a7,7,0,0,0-3.76-1.78,5.9,5.9,0,0,0-1.3-.15,5.34,5.34,0,0,0-4.46,2.53,5.45,5.45,0,0,0-.15,6.49,14.13,14.13,0,0,0,2.94,2.94l.31.26c.88.72,1.81,1.36,2.62,1.92.26.17.5.34.72.5.11.45.19.9.28,1.33a7.11,7.11,0,0,0,1,2.9,8.26,8.26,0,0,0,2.49,2c.31.19.62.38.91.58,0,2,.48,3.22,1.38,4a3.57,3.57,0,0,0,2.41.75,9.41,9.41,0,0,0,1.72-.18,11.91,11.91,0,0,0,4-1.67,17.23,17.23,0,0,0,2.48-2l.93-.84.45.09a9.08,9.08,0,0,0,1.87.25h.28c.44,0,.88,0,1.33,0s.95,0,1.42,0a6.63,6.63,0,0,0,3.11-.59l1.21-.62A58.8,58.8,0,0,0,452,75c3.14-2.32,3.89-6.09,4.21-9.48a15,15,0,0,1,.73-3.91c1-2.65,1-4.86.09-6.58s-2.77-2.81-5.45-3.33l-.23-.11-.21-.1c-1.82-4-4.64-6.12-8.06-6.12a9,9,0,0,0-1.62.15c-.57-.38-1.09-.77-1.6-1.15a9,9,0,0,0-3.47-1.93,6.56,6.56,0,0,0-1.26-.11,17.06,17.06,0,0,0-3.08.38c-.57.11-1.14.21-1.71.28a9,9,0,0,0-1,.23,4.94,4.94,0,0,1-1.15.21,1,1,0,0,1-.34-.05,44.37,44.37,0,0,1-4.34-1.87l-1.57-.74.25-4c.21,0,.42,0,.62,0,2.36,0,4.27-1.11,6.12-2.18.79-.46,1.6-.94,2.45-1.33.23.19.46.4.68.61a8.73,8.73,0,0,0,2.45,1.79,9.3,9.3,0,0,0,3.06.55l.89.07c0,.06,0,.12,0,.17a10.36,10.36,0,0,0-.05,1.48A6,6,0,0,0,441.72,43a6.11,6.11,0,0,0,2.79.68,5.54,5.54,0,0,0,3-.88,4.92,4.92,0,0,0,2.12-3,9.47,9.47,0,0,0-.89-6.2,6.44,6.44,0,0,1-.68-2.94,5.41,5.41,0,0,0-3.5-5.41,9.19,9.19,0,0,0-3.75-.86,7.92,7.92,0,0,0-3.47.82l-.17-.09a3.22,3.22,0,0,1-.55-.34A12.56,12.56,0,0,0,429,22Z" transform="translate(-0.41 -0.4)"/><path class="cls-4" d="M272.5,83.19c-2.08,0-3.75-1.24-5.11-3.78a5.28,5.28,0,0,0-.27-.46l-.37-.6h-1.93a3.32,3.32,0,0,1-2.75-1.23,2.46,2.46,0,0,1-.12-2.29l.32-.87c1.14-3.06,2.31-6.23,5.12-8.26a5.28,5.28,0,0,0,2.31-6.17c-.75-3.05.08-6.07,1.15-9.42a8.86,8.86,0,0,0,.18-3.85l0-.48a41.67,41.67,0,0,0-3.24-11.26A19,19,0,0,1,266.8,29a3.62,3.62,0,0,1,.78-2.8,2.63,2.63,0,0,1,2-.81,4.6,4.6,0,0,1,1.22.19,6.16,6.16,0,0,0,1.72.24,12.17,12.17,0,0,0,3.67-.75c.45-.14.9-.29,1.35-.41a6,6,0,0,1,1.55-.22,4.22,4.22,0,0,1,2.79,1.06c1.85,1.54,2.11,3.05.89,5.19l-.57,1,.67,5.73.12.1a7.17,7.17,0,0,1,2.61,6.23A7.8,7.8,0,0,1,281.45,50l-.21.11v3.78l.14.12.51.41a16.48,16.48,0,0,1,1.29,1.14c2.75,2.86,3.13,6.35,1,9.57-1,1.63-2.22,3.2-3.45,4.86-.58.77-1.18,1.57-1.79,2.42l-.1.14.11.57c.09.46.22,1.08.36,1.71A6.76,6.76,0,0,1,275,82.7,7.41,7.41,0,0,1,272.5,83.19Z" transform="translate(-0.41 -0.4)"/><path d="M279.08,24.88a3.8,3.8,0,0,1,2.53,1c1.69,1.42,1.92,2.73.8,4.69l-.39.68-.11.2-.13.23,0,.26.63,5.43,0,.32.25.21a6.77,6.77,0,0,1,2.46,5.89,7.39,7.39,0,0,1-3.93,5.85l-.41.23V54l.27.24.52.42a14,14,0,0,1,1.25,1.11,6.89,6.89,0,0,1,1,9.07c-1.05,1.62-2.21,3.18-3.44,4.83-.58.78-1.18,1.59-1.79,2.43l-.21.29.07.34.08.4c.09.46.22,1.09.36,1.72a6.36,6.36,0,0,1-4.11,7.45,6.85,6.85,0,0,1-2.34.47c-1.94,0-3.45-1.14-4.75-3.57-.08-.15-.17-.29-.3-.5s-.15-.23-.24-.38L267,78h-2.14a3,3,0,0,1-2.43-1,2.16,2.16,0,0,1-.08-1.93l.33-.87c1.16-3.14,2.26-6.11,5-8.07a5.64,5.64,0,0,0,2.47-6.6c-.73-3,.09-5.91,1.14-9.2a9,9,0,0,0,.2-4l-.05-.48a42.16,42.16,0,0,0-3.27-11.37,18.68,18.68,0,0,1-.92-5.41,3.24,3.24,0,0,1,.68-2.45,2.26,2.26,0,0,1,1.7-.68,4,4,0,0,1,1.1.17,6.3,6.3,0,0,0,1.84.26,12.47,12.47,0,0,0,3.79-.77c.46-.15.89-.28,1.33-.4a5.64,5.64,0,0,1,1.45-.21m0-.8a6.21,6.21,0,0,0-1.65.24,19.54,19.54,0,0,1-4.92,1.14,5.68,5.68,0,0,1-1.61-.22,4.7,4.7,0,0,0-1.33-.21c-2,0-3.35,1.56-3.17,4a19.3,19.3,0,0,0,1,5.65,41.09,41.09,0,0,1,3.21,11.15,9.63,9.63,0,0,1-.11,4.17c-1,3.12-2,6.38-1.16,9.63a4.87,4.87,0,0,1-2.16,5.76c-3.18,2.3-4.3,5.91-5.57,9.31-.88,2.32.65,4,3.22,4.06h1.73c.26.44.4.64.51.85,1.43,2.67,3.21,4,5.46,4a7.72,7.72,0,0,0,2.62-.51,7.15,7.15,0,0,0,4.61-8.39c-.19-.84-.35-1.69-.44-2.1,1.93-2.65,3.71-4.9,5.26-7.29a7.69,7.69,0,0,0-1.08-10.07c-.61-.63-1.32-1.15-1.82-1.58V50.3c5.41-3,5.63-9.8,1.58-13.06-.2-1.8-.4-3.53-.62-5.43.1-.19.3-.54.5-.88,1.31-2.31,1-4-1-5.7a4.59,4.59,0,0,0-3-1.15Z" transform="translate(-0.41 -0.4)"/><path class="cls-6" d="M158.54,84.73A21.62,21.62,0,0,1,152,83.65c-2.23-.69-3.41-2.64-4.19-4.26-.3-.62-.53-1.27-.78-2l-.33-.92-.05-.13-.12-.07c-6.12-3.7-8.81-9.71-7.59-16.92a3.52,3.52,0,0,1,.81-1.92c1.74-1.58,1.52-3.59,1.35-5.21a23.7,23.7,0,0,1,2.49-13.7,4.84,4.84,0,0,0,.23-3c-.93-4.4-.68-8,.8-11.25,1.34-3,3.7-4.69,6.46-4.69a8.22,8.22,0,0,1,4.56,1.53,9,9,0,0,1,1,.75l.24.19,2.24-.42c1.65-.3,3.21-.6,4.75-.82l.33,0a2.26,2.26,0,0,1,1.23.32,7.94,7.94,0,0,0,4.73,1.46,20.88,20.88,0,0,0,4.76-.74l.92-.21a11,11,0,0,1,2.34-.26,11.83,11.83,0,0,1,6.26,1.95c1.58,1,2.39,2.29,2.78,4.59a20.23,20.23,0,0,1-3.68,16l-.21.29.26.24c3.67,3.37,4,7.54,4.35,11.95l.07.8A14.39,14.39,0,0,1,188,59c0,.37,0,.74,0,1.1,0,3.71-.09,4-2.85,6.37l-.16.14,0,.2A17.69,17.69,0,0,1,183.85,75c-1.12,3-3.08,4.59-6,4.86-2,.19-4,.32-6.16.46l-3.16.21h-.18l-.11.14a11.12,11.12,0,0,1-7.69,4A17.19,17.19,0,0,1,158.54,84.73Zm3-49.41c-5.49,1.5-8.06,8.64-9.94,13.85-.37,1-.71,1.95-1,2.75l-.16.38.39.15c5.94,2.15,6.82,3,8.57,8.13q.14.38.24.75c.15.47.3,1,.5,1.43.39.91.94,1.38,1.65,1.38a3.14,3.14,0,0,0,1.83-.8l.29-.23-.56-.84c-1.47-2.15-2.74-4-1.26-6.51.72-1.23,2.05-1.81,4.18-1.81a27.06,27.06,0,0,1,2.78.21c.69.08,1.34.15,1.89.16h.3l.09-.3c.37-1.31.73-3.61,1.08-5.84.33-2.08.66-4.23,1-5.36l.12-.44-.45-.06c-7.82-1.15-7.82-1.15-11-6.83l-.16-.27Z" transform="translate(-0.41 -0.4)"/><path d="M151.1,20.06a7.73,7.73,0,0,1,4.33,1.46,9.38,9.38,0,0,1,.92.72.48.48,0,0,1,.1.09l.29.23.36-.07,2.06-.38c1.65-.31,3.2-.6,4.74-.82l.27,0a1.92,1.92,0,0,1,1,.25,8.31,8.31,0,0,0,5,1.53A21.49,21.49,0,0,0,175,22.3l.91-.21a10.36,10.36,0,0,1,2.26-.25,11.41,11.41,0,0,1,6,1.89c1.48.9,2.23,2.15,2.6,4.32a19.84,19.84,0,0,1-3.62,15.68l-.42.58.53.48c3.55,3.26,3.88,7.35,4.23,11.69l.06.79a13.56,13.56,0,0,1,0,1.69c0,.38,0,.76,0,1.13,0,3.59,0,3.76-2.71,6l-.32.28,0,.42a17.17,17.17,0,0,1-1.1,8c-1.07,2.84-2.91,4.34-5.64,4.6-2,.19-4,.32-6.13.46l-3.18.21-.36,0-.22.29a10.77,10.77,0,0,1-7.42,3.8,18.66,18.66,0,0,1-2,.11,21.19,21.19,0,0,1-6.4-1.06c-1.63-.51-2.84-1.76-3.95-4.06a19.28,19.28,0,0,1-.76-1.9c-.11-.31-.22-.62-.34-.93l-.1-.26-.23-.14c-6-3.61-8.6-9.47-7.4-16.51a3.16,3.16,0,0,1,.68-1.69c1.89-1.71,1.66-3.84,1.47-5.56A23.29,23.29,0,0,1,144,38.76a5.35,5.35,0,0,0,.28-3.24c-.92-4.32-.67-7.81.76-11,1.28-2.84,3.5-4.46,6.1-4.46m10.63,44.48a3.48,3.48,0,0,0,2.07-.89l.59-.45-.41-.63-.36-.52c-1.61-2.36-2.53-3.91-1.25-6.09.65-1.09,1.87-1.61,3.84-1.61a24.33,24.33,0,0,1,2.74.21c.7.08,1.36.15,1.92.16h.61l.17-.59c.38-1.33.75-3.64,1.1-5.88.32-2.07.65-4.22,1-5.32l.25-.88-.9-.13c-7.63-1.12-7.63-1.12-10.76-6.62l-.3-.55-.6.17c-5.7,1.56-8.31,8.81-10.22,14.11-.36,1-.7,1.94-1,2.73l-.32.77.78.28c5.84,2.12,6.62,2.86,8.34,7.89.08.24.15.49.23.73.15.48.31,1,.51,1.47.57,1.35,1.41,1.63,2,1.63M151.1,19.26c-2.84,0-5.39,1.73-6.83,4.93-1.69,3.75-1.65,7.57-.82,11.49a4.44,4.44,0,0,1-.2,2.71,24.25,24.25,0,0,0-2.53,13.92c.19,1.74.33,3.47-1.22,4.87a3.94,3.94,0,0,0-.93,2.15c-1.25,7.35,1.58,13.59,7.77,17.33.38,1,.68,2,1.13,2.9,1,2,2.22,3.78,4.43,4.47a22.15,22.15,0,0,0,6.64,1.1,18.44,18.44,0,0,0,2.09-.12,11.51,11.51,0,0,0,8-4.1c3.5-.25,6.42-.39,9.34-.67,3.19-.3,5.18-2.13,6.31-5.11a18.05,18.05,0,0,0,1.15-8.38c2.85-2.44,3-2.86,3-6.67,0-1,.09-1.92,0-2.87-.38-4.62-.53-9.32-4.55-13a20.61,20.61,0,0,0,3.76-16.29,6.35,6.35,0,0,0-3-4.86,12.24,12.24,0,0,0-6.46-2,10.9,10.9,0,0,0-2.43.27,25.83,25.83,0,0,1-5.59.94,7.57,7.57,0,0,1-4.5-1.38,2.65,2.65,0,0,0-1.46-.4,2.56,2.56,0,0,0-.39,0c-2.16.31-4.3.75-6.83,1.2a10.06,10.06,0,0,0-1.07-.84,8.54,8.54,0,0,0-4.78-1.6Zm10.63,44.48c-.56,0-1-.41-1.28-1.14s-.48-1.43-.73-2.15c-1.79-5.25-2.75-6.18-8.81-8.38,2-4.82,4.36-14.62,10.71-16.37,3.32,5.84,3.32,5.84,11.33,7-.67,2.34-1.34,8.68-2.07,11.2-1.2,0-3-.37-4.67-.37s-3.58.4-4.53,2c-1.74,3,0,5.12,1.63,7.47a2.76,2.76,0,0,1-1.58.72Z" transform="translate(-0.41 -0.4)"/><path class="cls-1" d="M91.43,83.43c-.33,0-.66,0-1,0a4.14,4.14,0,0,1-3-1.38,4.34,4.34,0,0,1-.84-3.39,19.57,19.57,0,0,1,.4-2.09c.08-.36.16-.73.24-1.13l.08-.39-2.73-.54-.1.35c-1.18,4.26-3.32,6.48-6.72,7a18.22,18.22,0,0,1-2.6.21,7.12,7.12,0,0,1-6.53-3.28l-.18-.27-.3.11-1.25.51a17,17,0,0,1-2.29.85,6.8,6.8,0,0,1-1.71.22,5,5,0,0,1-4-1.83A5.44,5.44,0,0,1,58,73.61a15.2,15.2,0,0,1,.85-2.39,16.81,16.81,0,0,0,.88-2.47,8.36,8.36,0,0,0,.09-4A21.76,21.76,0,0,0,58,60.4l-.25-.49A6.14,6.14,0,0,0,56.19,58c-3.4-2.82-4.07-4.74-3-8.54l0-.11,0-.1c-.23-.88-.48-1.72-.72-2.54a35.52,35.52,0,0,1-1.24-5.12,14.16,14.16,0,0,1,.38-5.26,6.1,6.1,0,0,1,5.06-4.87A5.07,5.07,0,0,0,61,27.37a15.17,15.17,0,0,1,2.17-4.32,7.09,7.09,0,0,1,6.08-3.42,9.6,9.6,0,0,1,1.95.21c1,.21,2,.48,2.92.74l1.3.36.16,0,.14-.09a10.53,10.53,0,0,1,5.1-1.79c2,0,3.77,1.07,6.44,3.8l.13.14.19,0c1.26-.12,2.29-.18,3.15-.18,4.84,0,6,1.67,6.12,8.92v.13L97,32c.44.56.9,1.06,1.31,1.5a4.89,4.89,0,0,1,1.5,2.2,18.43,18.43,0,0,1-.41,7.06,2.49,2.49,0,0,1-2.62,1.82,4.9,4.9,0,0,1-2.12-.52,3.82,3.82,0,0,1-.59-.37,2.68,2.68,0,0,0-1.48-.63,1.78,1.78,0,0,0-1.14.44l-.21.17.07.25c.66,2.48,2.38,4,4.59,4a5.5,5.5,0,0,0,2-.39,6.31,6.31,0,0,1,2.19-.47c1.72,0,2.68,1.2,2.85,3.57a19.73,19.73,0,0,0,1.63,5.9l.18.46a20.57,20.57,0,0,1,1.45,5.69c.35,4.22-1,6.78-4.28,7.83l-.25.08,0,.26c-.06.73-.12,1.44-.17,2.13-.12,1.52-.24,2.94-.44,4.35a5.68,5.68,0,0,1-2.56,4,12.32,12.32,0,0,1-7,2.11ZM68.81,36.55c-.54.7-1.06,1.38-1.56,2.05-1.09,1.45-2.13,2.82-3.25,4.1a6.87,6.87,0,0,0-.55,8.83l.23.31a5.16,5.16,0,0,1,.8,1.36,4.05,4.05,0,0,0,3.88,3c2.24.13,3.25,1.38,4.1,3.23a21.38,21.38,0,0,0,2.86,4.46A2.71,2.71,0,0,0,77.42,65a2.9,2.9,0,0,0,1.77-.69l.48-.37-.53-.29c-2.45-1.35-3.13-3.34-2.35-6.88l.08-.35-1-.33c-.38-.14-.72-.26-1.06-.36-5.81-1.56-8.34-5.33-7.74-11.54.35-3.56,2.5-5.78,5.63-5.78a7.92,7.92,0,0,1,1.17.1,9.76,9.76,0,0,1,5.53,3.31,5,5,0,0,0,.59.5l.31.25.2.16,3.11-1.55-.44-.39a8.73,8.73,0,0,1-3.12-7.34l0-.29-1.24-.46-.16.11c-.33.2-.68.4-1,.59A9.46,9.46,0,0,0,75.44,35c-1.52,1.54-2.79,2.26-4,2.26a3.61,3.61,0,0,1-2.1-.74l-.31-.22Z" transform="translate(-0.41 -0.4)"/><path d="M80.86,19.5c1.84,0,3.57,1,6.15,3.68l.27.28.38,0c1.25-.12,2.27-.18,3.11-.18,4.63,0,5.59,1.44,5.72,8.52V32l.17.21A19.25,19.25,0,0,0,98,33.76a4.75,4.75,0,0,1,1.39,2,18.42,18.42,0,0,1-.39,6.9,2.13,2.13,0,0,1-2.24,1.53,4.59,4.59,0,0,1-2-.48,3.84,3.84,0,0,1-.53-.34,3,3,0,0,0-1.71-.7,2.22,2.22,0,0,0-1.39.53l-.42.32.14.51c.7,2.63,2.61,4.26,5,4.26A5.85,5.85,0,0,0,98,47.85a6,6,0,0,1,2-.44c.55,0,2.22,0,2.46,3.2a20.05,20.05,0,0,0,1.65,6l.18.47a20,20,0,0,1,1.43,5.57c.32,4-1,6.44-4,7.42l-.5.16,0,.53c-.06.73-.12,1.43-.17,2.12-.12,1.51-.23,2.94-.43,4.34A5.34,5.34,0,0,1,98.21,81a12,12,0,0,1-6.78,2c-.32,0-.64,0-1,0a3.79,3.79,0,0,1-2.73-1.23A4,4,0,0,1,87,78.67a16.68,16.68,0,0,1,.39-2c.08-.36.16-.74.25-1.13l.16-.79L87,74.54l-1.33-.27L85,74.15,84.31,74l-.2.72c-1.14,4.08-3.17,6.21-6.4,6.69a17.44,17.44,0,0,1-2.54.21,6.78,6.78,0,0,1-6.2-3.1L68.62,78l-.61.23-1.25.51a16.82,16.82,0,0,1-2.25.83,6.4,6.4,0,0,1-1.6.21,4.54,4.54,0,0,1-3.68-1.68,5,5,0,0,1-.8-4.38,15.17,15.17,0,0,1,.83-2.33,16.38,16.38,0,0,0,.9-2.52,8.8,8.8,0,0,0,.09-4.16,23.25,23.25,0,0,0-1.89-4.47l-.25-.49a6.73,6.73,0,0,0-1.67-2c-3.24-2.69-3.88-4.51-2.85-8.12l.06-.21,0-.22c-.24-.88-.48-1.72-.72-2.54a35.77,35.77,0,0,1-1.24-5.06A14.3,14.3,0,0,1,52,36.43a5.74,5.74,0,0,1,4.74-4.57c2.51-.45,3.91-1.76,4.67-4.38a14.9,14.9,0,0,1,2.11-4.21A6.71,6.71,0,0,1,69.29,20a9.61,9.61,0,0,1,1.87.2c1,.21,2,.48,2.9.74l1.3.35.32.09.28-.17a10.22,10.22,0,0,1,4.9-1.74m-9.4,17.31a3.24,3.24,0,0,1-1.87-.67L69,35.7l-.46.6c-.55.71-1.07,1.39-1.57,2.06-1.09,1.45-2.12,2.81-3.23,4.08a7.25,7.25,0,0,0-.58,9.32l.24.32a5,5,0,0,1,.74,1.24,4.48,4.48,0,0,0,4.24,3.25c2,.12,3,1.23,3.75,3A21.85,21.85,0,0,0,75,64.11a3.08,3.08,0,0,0,2.41,1.31,3.3,3.3,0,0,0,2-.77l1-.74-1.07-.59c-2.26-1.25-2.88-3.11-2.15-6.44l.16-.7L76.66,56l-.61-.22c-.39-.14-.73-.26-1.09-.36-5.67-1.52-8-5.06-7.45-11.12.33-3.34,2.33-5.42,5.22-5.42a6.11,6.11,0,0,1,1.11.1,9.34,9.34,0,0,1,5.31,3.19,4.69,4.69,0,0,0,.64.54l.3.24.4.32L81,43l1.68-.83.67-.34,1.06-.53-.88-.78a8.37,8.37,0,0,1-3-7l0-.58L80,32.7l-.77-.28-.37-.14-.34.21c-.31.2-.65.38-1,.58a9.86,9.86,0,0,0-2.33,1.6c-1.45,1.46-2.62,2.14-3.7,2.14m9.4-18.11a10.88,10.88,0,0,0-5.3,1.85c-1.37-.36-2.79-.79-4.24-1.1a9.69,9.69,0,0,0-2-.22,7.48,7.48,0,0,0-6.41,3.59,15.8,15.8,0,0,0-2.22,4.44c-.63,2.18-1.71,3.4-4,3.81a6.55,6.55,0,0,0-5.38,5.17,14.84,14.84,0,0,0-.39,5.42,71.11,71.11,0,0,0,2,7.7c-1.11,3.9-.42,6,3.11,9a6,6,0,0,1,1.46,1.78,25.75,25.75,0,0,1,2.09,4.8,7.9,7.9,0,0,1-.1,3.77c-.4,1.66-1.33,3.19-1.73,4.86-.94,4,1.6,7,5.26,7a7.3,7.3,0,0,0,1.81-.23A37.74,37.74,0,0,0,68.3,79a7.58,7.58,0,0,0,6.87,3.46,17.35,17.35,0,0,0,2.66-.22c4.06-.6,6-3.53,7-7.27l2,.39c-.24,1.21-.53,2.22-.65,3.26-.33,2.93,1.26,5,4.22,5.21.34,0,.67,0,1,0a12.71,12.71,0,0,0,7.22-2.18,6.09,6.09,0,0,0,2.74-4.31c.29-2.07.4-4.16.61-6.5,3.84-1.25,4.87-4.48,4.56-8.24a21,21,0,0,0-1.48-5.8,21.56,21.56,0,0,1-1.78-6.25c-.19-2.64-1.34-3.94-3.25-3.94a6.4,6.4,0,0,0-2.33.5,5.27,5.27,0,0,1-1.85.36c-2,0-3.58-1.33-4.21-3.66a1.45,1.45,0,0,1,.9-.36c.7,0,1.27.66,1.9,1a5.28,5.28,0,0,0,2.29.56,2.9,2.9,0,0,0,3-2.12,19.21,19.21,0,0,0,.42-7.21c-.15-1.21-1.63-2.27-2.89-3.89-.13-7.18-1.22-9.31-6.52-9.31-.92,0-2,.07-3.18.18C85,20,83,18.7,80.86,18.7Zm-9.4,18.91c1.5,0,2.9-1,4.27-2.38a16.61,16.61,0,0,1,3.19-2.06l.77.28A9.1,9.1,0,0,0,83,41.11c-1,.48-1.65.81-2.35,1.17a10.85,10.85,0,0,1-.87-.71A10.21,10.21,0,0,0,74,38.14,7.61,7.61,0,0,0,72.73,38c-3.29,0-5.65,2.36-6,6.14-.6,6.16,1.73,10.28,8,12,.5.14,1,.34,1.65.56-.63,2.9-.55,5.61,2.55,7.32a2.51,2.51,0,0,1-1.53.6,2.33,2.33,0,0,1-1.79-1,21.06,21.06,0,0,1-2.81-4.38c-.91-2-2-3.32-4.43-3.46a3.69,3.69,0,0,1-3.53-2.69,7.06,7.06,0,0,0-1.08-1.79A6.42,6.42,0,0,1,64.3,43C66,41.08,67.4,39,69.13,36.79a4,4,0,0,0,2.33.82Z" transform="translate(-0.41 -0.4)"/><path class="cls-7" d="M378,83.09a30.71,30.71,0,0,1-3.37-.24l-.76-.11c-.46-.06-.93-.13-1.4-.16-4-.25-6.36-2.17-7.1-5.86l0-.18-.15-.09-.91-.53c-.65-.37-1.32-.75-1.94-1.17a5.36,5.36,0,0,1-2.67-3.48c-.19-1.27.36-2.67,1.63-4.18l.56-.64.52-.6-.09-.23a15,15,0,0,1,.42-13.13l.11-.23-.16-.2c-3.23-4.07-2.49-8.57-1.22-12.83,1.41-4.7,5.35-7.13,9.27-9.22l.14-.08.05-.14.52-1.5c.37-1.09.71-2.11,1.12-3.11A7.49,7.49,0,0,1,376,21.39a6.57,6.57,0,0,1,3.13-.91c1.81,0,3.34,1.05,4.43,3a17.36,17.36,0,0,1,1.12,2.73c.1.29.18.54.26.73l0,.1,5,4-.42.76.7,0,1.12,0c.6,0,1.2,0,1.81,0h.59c3.74.13,5.94,1.44,7.14,4.26a49.5,49.5,0,0,0,2.26,4.48c.39.7.78,1.41,1.16,2.15l.08.15.16,0c4,1.26,5.3,3.39,4.69,7.62-.1.68-.24,1.36-.38,2-.17.88-.36,1.79-.45,2.7-.29,2.7-1.36,4.33-3.49,5.29l-.29.12.06.31c.69,3.76-1.2,6.65-3.2,9.71l-.07.11a6.57,6.57,0,0,0-.9,2.08,8.38,8.38,0,0,1-6.73,6.72,50.82,50.82,0,0,1-6.33.94h-.21a5.69,5.69,0,0,1-1.27-.21c-.28-.06-.57-.13-.88-.18l-.23,0-.15.18C383.16,82.19,381.06,83.09,378,83.09Zm-.7-22.68a4,4,0,0,1,3.29,1.86,16.18,16.18,0,0,1,1.69,3.38l.05.12a6.12,6.12,0,0,1,.31,1.21,7.22,7.22,0,0,0,.34,1.33c.5,1.25,1.31,1.44,1.75,1.44a2.56,2.56,0,0,0,1.52-.61c1.66-1.29,2-2.55,1.2-5l-.06-.19-.19-.07c-1.68-.59-2.37-1.48-2.19-2.78.22-1.51,1.47-2,3-2.44a9.59,9.59,0,0,0,1.21-.47l.34-.15.31-.12-.07-.33c-.09-.43-.2-.85-.32-1.26a5.31,5.31,0,0,1-.32-2.2,5.11,5.11,0,0,1,1.11-1.91c.27-.34.54-.7.8-1.09l.19-.29-1-.85c-.53-.48-1.1-1-1.67-1.48-1.23-1-2.47-2.38-2.32-4.34.13-1.78-1-2.37-2.1-2.7l-.16-.05-2.76,1.52v.24a4.41,4.41,0,0,1-2.95,4.51l-.38.16.86,1.85c.6,1.29,1.17,2.51.58,3.89-.53,1.21-1.57,1.4-2.77,1.62l-.76.14a3.45,3.45,0,0,0-2.58,1.71,3.76,3.76,0,0,0,.39,3.34l.12.22H374l.6,0,.63,0a4.37,4.37,0,0,0,.94-.1A4.81,4.81,0,0,1,377.3,60.41Z" transform="translate(-0.41 -0.4)"/><path d="M379.12,20.88a4.78,4.78,0,0,1,4.08,2.83,16.72,16.72,0,0,1,1.09,2.67l.26.75.08.2.18.14,4.7,3.68-.59,1.07,1.39,0,1.13,0c.58,0,1.19,0,1.78,0h.59c3.61.12,5.63,1.32,6.78,4a50.23,50.23,0,0,0,2.28,4.51c.38.69.77,1.41,1.16,2.15l.15.29.32.1c3.8,1.2,5,3.14,4.41,7.18-.1.67-.23,1.35-.37,2-.18.89-.36,1.81-.46,2.74-.27,2.58-1.25,4.06-3.25,5l-.58.26.12.61c.66,3.61-1.19,6.43-3.14,9.42l-.08.11a6.92,6.92,0,0,0-.95,2.21,7.91,7.91,0,0,1-6.43,6.42,51.65,51.65,0,0,1-6.28.93h-.17a5.28,5.28,0,0,1-1.18-.2c-.29-.07-.59-.14-.9-.19l-.46-.08-.3.37c-1.55,1.91-3.55,2.76-6.48,2.76a27.59,27.59,0,0,1-3.32-.24l-.75-.1c-.46-.07-.94-.14-1.43-.17-3.89-.24-6-2-6.74-5.54l-.07-.35-.3-.18-.93-.54c-.67-.38-1.3-.75-1.91-1.15a5,5,0,0,1-2.5-3.21,5.11,5.11,0,0,1,1.54-3.86l.54-.61.38-.44.33-.37-.2-.46a14.43,14.43,0,0,1,.41-12.8l.24-.46-.32-.4c-3.12-3.92-2.4-8.31-1.15-12.47,1.36-4.55,5.23-6.93,9.07-9l.28-.15.1-.29.52-1.52c.37-1.07.71-2.08,1.11-3.07a7.1,7.1,0,0,1,3.28-3.59,6.16,6.16,0,0,1,2.94-.86M373.52,61h.55l.54,0,.65,0a4.45,4.45,0,0,0,1-.11,4.06,4.06,0,0,1,1-.13,3.55,3.55,0,0,1,3,1.69,15.66,15.66,0,0,1,1.65,3.3l0,.12a5.82,5.82,0,0,1,.29,1.13,6.71,6.71,0,0,0,.36,1.4,2.28,2.28,0,0,0,2.12,1.7,2.85,2.85,0,0,0,1.76-.7c1.8-1.39,2.15-2.81,1.34-5.44l-.12-.38-.37-.13c-1.91-.68-2-1.61-1.93-2.35.16-1.17,1-1.63,2.68-2.12a11.61,11.61,0,0,0,1.26-.48l.33-.15.61-.25-.13-.65c-.09-.45-.21-.87-.32-1.28a4.71,4.71,0,0,1-.31-2,4.81,4.81,0,0,1,1-1.74c.27-.35.55-.7.81-1.11l.38-.58-.51-.46c-.23-.19-.45-.4-.69-.61-.54-.49-1.11-1-1.69-1.49-1.66-1.41-2.29-2.57-2.19-4a2.84,2.84,0,0,0-2.37-3.11L384,41l-.3.17-1.09.6-1.31.72-.43.23v.48a4,4,0,0,1-2.71,4.13l-.75.33.34.74.23.49.3.64.15.35c.59,1.26,1.1,2.35.58,3.56-.42,1-1.17,1.15-2.47,1.38l-.78.15a3.81,3.81,0,0,0-2.85,1.93,4.11,4.11,0,0,0,.4,3.69l.22.44m5.6-40.93a7,7,0,0,0-3.32,1,7.88,7.88,0,0,0-3.64,4c-.6,1.46-1.07,3-1.65,4.62-4,2.15-8,4.63-9.46,9.46-1.36,4.53-1.95,9.11,1.29,13.2a15.28,15.28,0,0,0-.43,13.47c-.41.46-.67.75-.93,1.06-2.67,3.17-2.3,6,1.13,8.25.92.61,1.9,1.13,2.87,1.71.82,4.12,3.51,5.93,7.47,6.18.71,0,1.42.18,2.14.26a28.38,28.38,0,0,0,3.41.25,8.43,8.43,0,0,0,7.1-3.06,15,15,0,0,0,2.22.4l.25,0a48.83,48.83,0,0,0,6.38-1,8.73,8.73,0,0,0,7-7,6.13,6.13,0,0,1,.84-1.95c2-3.08,4.06-6.14,3.33-10.11,2.55-1.14,3.46-3.14,3.72-5.61.17-1.58.61-3.14.83-4.72.65-4.47-.79-6.74-5-8.05-1.24-2.36-2.48-4.42-3.41-6.6-1.44-3.39-4.18-4.4-7.49-4.51h-.62c-1,0-2,.07-2.93.09l.24-.44-5.23-4.1a24.58,24.58,0,0,0-1.4-3.51c-1.18-2.16-2.85-3.25-4.78-3.25ZM374,60.21c-1.2-2.36-.56-3.93,1.92-4.48,1.48-.33,3.07-.3,3.8-2s-.07-3.11-.74-4.56L378.47,48a4.77,4.77,0,0,0,3.19-4.87l2.41-1.32c1.26.38,1.91,1,1.81,2.28-.16,2,1,3.44,2.46,4.68.83.7,1.63,1.44,2.37,2.09-.79,1.19-1.77,2.09-2,3.14s.37,2.28.64,3.62c-.37.15-.93.43-1.51.61-1.51.44-3,1-3.26,2.77s1,2.71,2.46,3.21c.72,2.32.45,3.4-1.07,4.57a2.14,2.14,0,0,1-1.27.53c-.58,0-1.06-.39-1.38-1.19s-.32-1.74-.65-2.54A16.49,16.49,0,0,0,380.91,62a4.38,4.38,0,0,0-3.61-2,5.18,5.18,0,0,0-1.2.15,3.38,3.38,0,0,1-.84.09c-.4,0-.8,0-1.19,0Z" transform="translate(-0.41 -0.4)"/></g></g></svg>